<svg width="14" height="14" viewBox="0 0 14 14" fill="none" xmlns="http://www.w3.org/2000/svg">
<path d="M7.5 6.25C7.5 6.10166 7.54399 5.95666 7.6264 5.83332C7.70881 5.70999 7.82594 5.61386 7.96299 5.55709C8.10003 5.50032 8.25083 5.48547 8.39632 5.51441C8.5418 5.54335 8.67544 5.61478 8.78033 5.71967C8.88522 5.82456 8.95665 5.9582 8.98559 6.10368C9.01453 6.24917 8.99967 6.39997 8.94291 6.53701C8.88614 6.67406 8.79001 6.79119 8.66668 6.8736C8.54334 6.95601 8.39834 7 8.25 7C8.05109 7 7.86032 6.92098 7.71967 6.78033C7.57902 6.63968 7.5 6.44891 7.5 6.25ZM12.9875 4.33625C12.9009 5.60057 12.3381 6.78501 11.4124 7.65057C10.4868 8.51612 9.26728 8.99837 8 9H6C5.80109 9 5.61032 9.07902 5.46967 9.21967C5.32902 9.36032 5.25 9.55109 5.25 9.75C5.25 9.94891 5.32902 10.1397 5.46967 10.2803C5.61032 10.421 5.80109 10.5 6 10.5H9.5C9.63261 10.5 9.75979 10.5527 9.85355 10.6464C9.94732 10.7402 10 10.8674 10 11C10 11.1326 9.94732 11.2598 9.85355 11.3536C9.75979 11.4473 9.63261 11.5 9.5 11.5H6.5V12.5H8.5C8.63261 12.5 8.75979 12.5527 8.85355 12.6464C8.94732 12.7402 9 12.8674 9 13C9 13.1326 8.94732 13.2598 8.85355 13.3536C8.75979 13.4473 8.63261 13.5 8.5 13.5H5C3.67392 13.5 2.40215 12.9732 1.46447 12.0355C0.526784 11.0979 0 9.82608 0 8.5C0 7.17392 0.526784 5.90215 1.46447 4.96447C2.40215 4.02678 3.67392 3.5 5 3.5H12.25C12.4489 3.5 12.6397 3.42098 12.7803 3.28033C12.921 3.13968 13 2.94891 13 2.75C13 2.55109 12.921 2.36032 12.7803 2.21967C12.6397 2.07902 12.4489 2 12.25 2H7C6.60218 2 6.22064 1.84196 5.93934 1.56066C5.65804 1.27936 5.5 0.897825 5.5 0.5C5.5 0.367392 5.55268 0.240215 5.64645 0.146447C5.74021 0.0526784 5.86739 0 6 0C6.13261 0 6.25979 0.0526784 6.35355 0.146447C6.44732 0.240215 6.5 0.367392 6.5 0.5C6.5 0.632608 6.55268 0.759785 6.64645 0.853553C6.74021 0.947322 6.86739 1 7 1H12.25C12.6482 1.00037 13.0344 1.13655 13.3448 1.38604C13.6552 1.63554 13.8712 1.98343 13.9571 2.37227C14.0431 2.76111 13.9938 3.16763 13.8176 3.52471C13.6413 3.88178 13.3485 4.16806 12.9875 4.33625ZM2.175 11.3306L4.25125 9.8475V9.75C4.25089 9.59206 4.27192 9.4348 4.31375 9.2825L1.0625 7.80437C0.949431 8.4385 0.99181 9.09058 1.18601 9.70473C1.3802 10.3189 1.72042 10.8768 2.1775 11.3306H2.175ZM4.6125 10.8181L3.0075 11.9663C3.61313 12.3164 4.30044 12.5005 5 12.5H5.5V11.4269C5.14872 11.3213 4.83927 11.1084 4.615 10.8181H4.6125ZM5.5 8.07312V4.5H5C4.23281 4.50086 3.48201 4.72209 2.83693 5.13737C2.19185 5.55265 1.67965 6.1445 1.36125 6.8425L4.85313 8.42937C5.04095 8.26596 5.26149 8.14451 5.5 8.07312ZM11.9688 4.5H6.5V8H8C8.97395 7.99882 9.91411 7.64284 10.6446 6.99864C11.3751 6.35444 11.8458 5.46616 11.9688 4.5Z" fill="black"/>
</svg>
