<svg width="18" height="20" viewBox="0 0 18 20" fill="none" xmlns="http://www.w3.org/2000/svg">
<path d="M13.5 5.5C13.5 6.69347 13.0259 7.83807 12.182 8.68198C11.3381 9.52589 10.1935 10 9 10C7.80653 10 6.66193 9.52589 5.81802 8.68198C4.97411 7.83807 4.5 6.69347 4.5 5.5C4.5 4.30653 4.97411 3.16193 5.81802 2.31802C6.66193 1.47411 7.80653 1 9 1C10.1935 1 11.3381 1.47411 12.182 2.31802C13.0259 3.16193 13.5 4.30653 13.5 5.5ZM17 19V17C17 15.9391 16.5786 14.9217 15.8284 14.1716C15.0783 13.4214 14.0609 13 13 13H5C3.93913 13 2.92172 13.4214 2.17157 14.1716C1.42143 14.9217 1 15.9391 1 17V19H17Z" stroke="black" stroke-width="2" stroke-linecap="square"/>
</svg>
